<svg width="47" height="45" viewBox="0 0 47 45" fill="none" xmlns="http://www.w3.org/2000/svg">
<path d="M17.5136 8.36045C19.3686 8.36045 20.8723 6.85327 20.8723 4.99407C20.8723 3.13487 19.3686 1.62769 17.5136 1.62769C15.6586 1.62769 14.1548 3.13487 14.1548 4.99407C14.1548 6.85327 15.6586 8.36045 17.5136 8.36045Z" fill="#FDE047"/>
<path d="M16.1846 4.78336C16.8024 4.78336 17.3032 4.28139 17.3032 3.66219C17.3032 3.04298 16.8024 2.54102 16.1846 2.54102C15.5667 2.54102 15.0659 3.04298 15.0659 3.66219C15.0659 4.28139 15.5667 4.78336 16.1846 4.78336Z" fill="white"/>
<path opacity="0.3" d="M23.452 43.8511C32.3419 43.8511 39.5486 42.7151 39.5486 41.3138C39.5486 39.9126 32.3419 38.7766 23.452 38.7766C14.5621 38.7766 7.35547 39.9126 7.35547 41.3138C7.35547 42.7151 14.5621 43.8511 23.452 43.8511Z" fill="#374151"/>
<path d="M41.6022 33.3193C43.4751 33.3193 44.9935 30.9616 44.9935 28.0533C44.9935 25.145 43.4751 22.7874 41.6022 22.7874C39.7293 22.7874 38.2109 25.145 38.2109 28.0533C38.2109 30.9616 39.7293 33.3193 41.6022 33.3193Z" fill="#374151"/>
<path d="M5.34935 33.3193C7.19592 33.3193 8.69285 30.9616 8.69285 28.0533C8.69285 25.145 7.19592 22.7874 5.34935 22.7874C3.50279 22.7874 2.00586 25.145 2.00586 28.0533C2.00586 30.9616 3.50279 33.3193 5.34935 33.3193Z" fill="#374151"/>
<path d="M42.3922 29.0204C42.3922 38.4582 33.9334 40.4081 23.5001 40.4081C13.0667 40.4081 4.60791 38.4582 4.60791 29.0204C4.60791 19.5825 13.0667 11.9387 23.5001 11.9387C33.9334 11.9387 42.3922 19.5825 42.3922 29.0204Z" fill="#E5E7EB"/>
<path opacity="0.2" d="M41.3077 22.0212C41.8582 23.7652 42.1554 25.6149 42.1554 27.5307C42.1554 38.0755 33.1933 40.2541 22.1372 40.2541C18.2129 40.2541 14.5533 39.9793 11.4634 39.1533C14.7607 40.3248 18.9307 40.6915 23.4657 40.6915C34.1424 40.6915 42.7967 38.6663 42.7967 28.864C42.7967 26.4382 42.2663 24.1273 41.3067 22.0222L41.3077 22.0212Z" fill="#374151"/>
<path opacity="0.2" d="M39.8351 28.6571C39.8351 37.0438 32.5001 38.7767 23.452 38.7767C14.4038 38.7767 7.06885 37.0438 7.06885 28.6571C7.06885 20.2703 14.4038 16.0852 23.452 16.0852C32.5001 16.0852 39.8351 20.2694 39.8351 28.6571Z" fill="#374151"/>
<path d="M39.0712 28.3319C39.0712 36.2174 32.0824 37.847 23.4619 37.847C14.8414 37.847 7.85254 36.2184 7.85254 28.3319C7.85254 20.4454 14.8414 16.5112 23.4619 16.5112C32.0824 16.5112 39.0712 20.4454 39.0712 28.3319Z" fill="#374151"/>
<g filter="url(#filter0_d_2838_6009)">
<path d="M18.9691 24.1555C18.9691 22.8182 17.8876 21.7341 16.5536 21.7341C15.2196 21.7341 14.1382 22.8182 14.1382 24.1555V26.8593C14.1382 28.1966 15.2196 29.2807 16.5536 29.2807C17.8876 29.2807 18.9691 28.1966 18.9691 26.8593V24.1555Z" fill="#FDE047"/>
</g>
<g filter="url(#filter1_d_2838_6009)">
<path d="M35.4857 24.1555C35.4857 22.8182 34.4042 21.7341 33.0702 21.7341C31.7362 21.7341 30.6548 22.8182 30.6548 24.1555V26.8593C30.6548 28.1966 31.7362 29.2807 33.0702 29.2807C34.4042 29.2807 35.4857 28.1966 35.4857 26.8593V24.1555Z" fill="#FDE047"/>
</g>
<g filter="url(#filter2_d_2838_6009)">
<path d="M27.891 28.5559C27.1201 29.0107 26.2527 29.2673 25.3337 29.2673C24.4147 29.2673 23.5158 29.0021 22.7354 28.532" stroke="#FDE047" strokeWidth="3" strokeLinecap="round" strokeLinejoin="round"/>
</g>
<path d="M12.1311 18.3258C13.4043 17.2333 14.1562 16.0194 13.8104 15.6146C13.4645 15.2097 12.152 15.7672 10.8787 16.8597C9.60544 17.9522 8.85359 19.1661 9.19941 19.571C9.54524 19.9758 10.8578 19.4184 12.1311 18.3258Z" fill="white"/>
<defs>
<filter id="filter0_d_2838_6009" x="13.1382" y="20.7341" width="6.83105" height="9.54663" filterUnits="userSpaceOnUse" colorInterpolationFilters="sRGB">
<feFlood flood-opacity="0" result="BackgroundImageFix"/>
<feColorMatrix in="SourceAlpha" type="matrix" values="0 0 0 0 0 0 0 0 0 0 0 0 0 0 0 0 0 0 127 0" result="hardAlpha"/>
<feOffset/>
<feGaussianBlur stdDeviation="0.5"/>
<feColorMatrix type="matrix" values="0 0 0 0 0.992157 0 0 0 0 0.878431 0 0 0 0 0.278431 0 0 0 0.5 0"/>
<feBlend mode="normal" in2="BackgroundImageFix" result="effect1_dropShadow_2838_6009"/>
<feBlend mode="normal" in="SourceGraphic" in2="effect1_dropShadow_2838_6009" result="shape"/>
</filter>
<filter id="filter1_d_2838_6009" x="29.6548" y="20.7341" width="6.83105" height="9.54663" filterUnits="userSpaceOnUse" colorInterpolationFilters="sRGB">
<feFlood flood-opacity="0" result="BackgroundImageFix"/>
<feColorMatrix in="SourceAlpha" type="matrix" values="0 0 0 0 0 0 0 0 0 0 0 0 0 0 0 0 0 0 127 0" result="hardAlpha"/>
<feOffset/>
<feGaussianBlur stdDeviation="0.5"/>
<feColorMatrix type="matrix" values="0 0 0 0 0.992157 0 0 0 0 0.878431 0 0 0 0 0.278431 0 0 0 0.5 0"/>
<feBlend mode="normal" in2="BackgroundImageFix" result="effect1_dropShadow_2838_6009"/>
<feBlend mode="normal" in="SourceGraphic" in2="effect1_dropShadow_2838_6009" result="shape"/>
</filter>
<filter id="filter2_d_2838_6009" x="20.2354" y="26.0317" width="10.1558" height="5.7356" filterUnits="userSpaceOnUse" colorInterpolationFilters="sRGB">
<feFlood flood-opacity="0" result="BackgroundImageFix"/>
<feColorMatrix in="SourceAlpha" type="matrix" values="0 0 0 0 0 0 0 0 0 0 0 0 0 0 0 0 0 0 127 0" result="hardAlpha"/>
<feOffset/>
<feGaussianBlur stdDeviation="0.5"/>
<feColorMatrix type="matrix" values="0 0 0 0 0.992157 0 0 0 0 0.878431 0 0 0 0 0.278431 0 0 0 0.5 0"/>
<feBlend mode="normal" in2="BackgroundImageFix" result="effect1_dropShadow_2838_6009"/>
<feBlend mode="normal" in="SourceGraphic" in2="effect1_dropShadow_2838_6009" result="shape"/>
</filter>
</defs>
</svg>
